<svg xmlns="http://www.w3.org/2000/svg" viewBox="0 0 51.71 83.15">
    <defs>
        <style>
            .cls-1,
            .cls-4 {
                fill: none;
            }

            .cls-2 {
                fill: #03ffff;
            }

            .cls-3 {
                fill: #fff;
            }

            .cls-4 {
                stroke: #fff;
                stroke-miterlimit: 10;
                stroke-width: 2px;
            }
        </style>
    </defs>
    <title>Asset 1</title>
    <g id="Layer_2" data-name="Layer 2">
        <g id="Layer_1-2" data-name="Layer 1">
            <g id="nav_bar">
                <path class="cls-1"
                    d="M22.57,30a3.79,3.79,0,0,0,2.37-.8,5.17,5.17,0,0,0,1.6-2.29,9.67,9.67,0,0,0,.56-3.41A9.71,9.71,0,0,0,26.54,20,5.23,5.23,0,0,0,25,17.75a3.8,3.8,0,0,0-2.38-.8H13.8V30Z" />
                <path class="cls-2" d="M20.26,34.24l.53,1.29h1.59a9.18,9.18,0,0,0,3.4-.61l-.84-2Z" />
                <rect class="cls-2" x="11.15" y="11.37" width="2.65" height="5.58" />
                <polygon class="cls-2"
                    points="11.15 29.95 13.8 29.95 13.8 16.95 11.15 16.95 11.15 11.37 9.1 11.37 9.1 53.22 13.8 53.22 13.8 35.53 11.15 35.53 11.15 29.95" />
                <path class="cls-2"
                    d="M20.26,34.24l4.68-1.33.84,2A8.41,8.41,0,0,0,27.46,34a9.82,9.82,0,0,0,3.41-4.25,15.36,15.36,0,0,0,1.22-6.34,15.52,15.52,0,0,0-1.21-6.34,9.73,9.73,0,0,0-3.4-4.25,8.92,8.92,0,0,0-5.1-1.49H13.8V17h8.77a3.8,3.8,0,0,1,2.38.8A5.23,5.23,0,0,1,26.54,20a9.71,9.71,0,0,1,.56,3.41,9.67,9.67,0,0,1-.56,3.41,5.17,5.17,0,0,1-1.6,2.29,3.79,3.79,0,0,1-2.37.8H13.8v5.58h7Z" />
                <rect class="cls-2" x="11.15" y="29.95" width="2.65" height="5.58" />
                <polygon class="cls-3" points="36.85 71.78 42.6 71.78 30.45 46.29 27.12 51.35 36.85 71.78" />
                <polygon class="cls-3" points="20.65 53.43 19.96 62.23 21.66 59.65 21.66 51.82 20.65 53.43" />
                <polygon class="cls-3" points="26.22 49.46 27.12 51.35 30.45 46.29 29.92 45.18 26.22 49.46" />
                <polygon class="cls-3"
                    points="26.22 49.46 29.92 45.18 30.45 46.29 41.2 29.96 35.42 29.96 21.66 51.82 21.66 59.65 27.12 51.35 26.22 49.46" />
                <path class="cls-2" d="M20.79,35.53l7.14,17.69H33.5l-7.72-18.3a9.18,9.18,0,0,1-3.4.61Z" />
                <polygon class="cls-3"
                    points="20.65 53.43 21.66 51.82 21.66 29.96 16.97 29.96 16.97 71.78 21.66 71.78 21.66 59.65 19.96 62.23 20.65 53.43" />
                <rect class="cls-4" x="1" y="1" width="49.71" height="81.15" />
            </g>
        </g>
    </g>
</svg>