<svg xmlns="http://www.w3.org/2000/svg" viewBox="0 0 32 32"><defs><style>.cls-1{fill:#f3f3f3;}</style></defs><title>Asset 3</title><g id="Layer_2" data-name="Layer 2"><g id="Layer_1-2" data-name="Layer 1"><g id="nav_bar"><path class="cls-1" d="M16,0A16,16,0,1,0,32,16,16,16,0,0,0,16,0Zm0,2.67A13.32,13.32,0,0,1,21.89,4a13.28,13.28,0,0,1-4.08,7.16,40.11,40.11,0,0,0-6.22-7.78A13.38,13.38,0,0,1,16,2.67Zm-7,2a37,37,0,0,1,6.66,8.15,13.31,13.31,0,0,1-6.84,1.88,13.23,13.23,0,0,1-5.89-1.38A13.3,13.3,0,0,1,9,4.64Zm15.26.9A13.27,13.27,0,0,1,29.33,16c0,.19,0,.37,0,.56a15.89,15.89,0,0,0-8.68.09c-.46-1.07-1-2.1-1.48-3.1A16,16,0,0,0,24.27,5.54ZM17,15.11c.42.81.82,1.64,1.19,2.5A16,16,0,0,0,9.72,27.77a13.31,13.31,0,0,1-7-11.67,16,16,0,0,0,6.16,1.23A16,16,0,0,0,17,15.11Zm8.18,3.56a13.16,13.16,0,0,1,3.79.55,13.28,13.28,0,0,1-5.14,7.6,53.75,53.75,0,0,0-2.16-7.69A13.45,13.45,0,0,1,25.15,18.67Zm-6,1.42a50.79,50.79,0,0,1,2.2,8.13,13.43,13.43,0,0,1-9.15.56A13.38,13.38,0,0,1,19.15,20.09Z"/></g></g></g></svg>