<svg xmlns="http://www.w3.org/2000/svg" viewBox="0 0 32 32"><defs><style>.cls-1{fill:#f3f3f3;}</style></defs><title>Asset 6</title><g id="Layer_2" data-name="Layer 2"><g id="Layer_1-2" data-name="Layer 1"><g id="nav_bar"><path class="cls-1" d="M6.28,0A6.3,6.3,0,0,0,0,6.28V25.72A6.3,6.3,0,0,0,6.28,32H25.72A6.3,6.3,0,0,0,32,25.72V6.28A6.3,6.3,0,0,0,25.72,0Zm0,2.91H25.72a3.33,3.33,0,0,1,3.37,3.37V25.72a3.33,3.33,0,0,1-3.37,3.37H6.28a3.33,3.33,0,0,1-3.37-3.37V6.28A3.33,3.33,0,0,1,6.28,2.91ZM25.49,6a1.46,1.46,0,0,0-1.15,2.36h0a1.45,1.45,0,0,0,2,.24h0a1.46,1.46,0,0,0,.24-2h0A1.49,1.49,0,0,0,25.49,6ZM15.93,7.2a8.95,8.95,0,1,0,9,9A9,9,0,0,0,15.93,7.2Zm0,2.91a6,6,0,1,1-6,6A6,6,0,0,1,15.93,10.11Z"/></g></g></g></svg>