<svg xmlns="http://www.w3.org/2000/svg" viewBox="0 0 35.82 27.92"><defs><style>.cls-1{fill:#f3f3f3;}</style></defs><title>Asset 2</title><g id="Layer_2" data-name="Layer 2"><g id="Layer_1-2" data-name="Layer 1"><g id="nav_bar"><g id="burgermenu"><path class="cls-1" d="M4.68,23.24H31.14a4.68,4.68,0,0,1,4.68,4.68v0a0,0,0,0,1,0,0H0a0,0,0,0,1,0,0v0A4.68,4.68,0,0,1,4.68,23.24Z"/><path class="cls-1" d="M4.68,11.62H31.14a4.68,4.68,0,0,1,4.68,4.68v0a0,0,0,0,1,0,0H0a0,0,0,0,1,0,0v0A4.68,4.68,0,0,1,4.68,11.62Z"/><path class="cls-1" d="M4.68,0H31.14a4.68,4.68,0,0,1,4.68,4.68v0a0,0,0,0,1,0,0H0a0,0,0,0,1,0,0v0A4.68,4.68,0,0,1,4.68,0Z"/></g></g></g></g></svg>