<svg xmlns="http://www.w3.org/2000/svg" viewBox="0 0 38.92 26.18"><defs><style>.cls-1{fill:#f3f3f3;}</style></defs><title>Asset 5</title><g id="Layer_2" data-name="Layer 2"><g id="Layer_1-2" data-name="Layer 1"><g id="nav_bar"><path class="cls-1" d="M3.15,0A3.36,3.36,0,0,0,0,3.46V22.72a3.21,3.21,0,0,0,3.33,3.46h8.42c6.63,0,7.87-5,7.87-7,0-2.7-1.61-5.66-4-6.57A6.48,6.48,0,0,0,18.3,7c0-2-1.24-7-7.87-7Zm2.7,5.27H8.57c1.72,0,3.86.43,3.86,2.64S10.24,10.5,9.06,10.5H5.85Zm0,10.41h4.53c1.18,0,3.37.38,3.37,2.59s-2.14,2.64-3.86,2.64h-4Zm29.48,2H27.47c0,4.19,2.85,4.47,3.62,4.47,2.48,0,3.26-1,3.62-1.83.42-2.3,3.95-2,3.95.3,0,2.91-2.57,5.6-7.44,5.6a8.48,8.48,0,0,1-6.77-2.88c-1.55-1.9-2.07-3.72-2.07-7,0-4.48,1.51-6.7,2.25-7.64C28.19,4.13,35.7,5.21,38,10.37a10.19,10.19,0,0,1,.91,4.15A2.85,2.85,0,0,1,38,17.07a5.14,5.14,0,0,1-2.65.57Zm-7.69-4.2H34.1A3.23,3.23,0,1,0,27.64,13.44Z"/><path class="cls-1" d="M25.68.85h9.94a1,1,0,0,1,1,1v1.5a1,1,0,0,1-1,1H25.68a1,1,0,0,1-1-1V1.82A1,1,0,0,1,25.68.85Z"/></g></g></g></svg>