<svg xmlns="http://www.w3.org/2000/svg" viewBox="0 0 32.68 32"><defs><style>.cls-1{fill:#f3f3f3;}</style></defs><title>Asset 4</title><g id="Layer_2" data-name="Layer 2"><g id="Layer_1-2" data-name="Layer 1"><g id="nav_bar"><path class="cls-1" d="M16.34,0a16.41,16.41,0,0,0-5.16,32c.81.15,1.11-.35,1.11-.79s0-1.42,0-2.79c-4.55,1-5.51-2.2-5.51-2.2A4.36,4.36,0,0,0,5,23.79c-1.48-1,.11-1,.11-1a3.44,3.44,0,0,1,2.5,1.7,3.48,3.48,0,0,0,4.76,1.36,3.55,3.55,0,0,1,1-2.2c-3.63-.41-7.44-1.82-7.44-8.1A6.36,6.36,0,0,1,7.6,11.14,5.9,5.9,0,0,1,7.76,6.8s1.37-.44,4.49,1.68a15.35,15.35,0,0,1,8.18,0c3.12-2.13,4.49-1.68,4.49-1.68a6,6,0,0,1,.17,4.34,6.36,6.36,0,0,1,1.68,4.4c0,6.3-3.82,7.69-7.46,8.09a4,4,0,0,1,1.11,3c0,2.2,0,4,0,4.5s.3,1,1.13.79A16.42,16.42,0,0,0,16.34,0Z"/></g></g></g></svg>